<?xml version="1.0" encoding="UTF-8"?>
<svg version="1.1" xmlns="http://www.w3.org/2000/svg" width="750" height="750">
<path d="M0 0 C1.62242587 0.15482045 3.24489421 0.30919639 4.86740112 0.46316528 C9.24372864 0.87986909 13.61939567 1.30315407 17.99494028 1.72799063 C21.65780198 2.08297326 25.32098425 2.43458273 28.9841727 2.78617489 C37.62792311 3.61580967 46.271157 4.45067452 54.9140625 5.2890625 C63.81292734 6.15220709 72.71252246 7.00748737 81.61253178 7.85874355 C89.27437738 8.59179709 96.93579158 9.32923909 104.5968684 10.07028401 C109.16365224 10.51200977 113.73056864 10.95221421 118.29788589 11.3883934 C122.59121947 11.7986413 126.88398388 12.21441208 131.17638016 12.63434982 C132.74627658 12.78704045 134.31635765 12.93784684 135.88663483 13.08657074 C150.49320064 14.47213779 162.58921992 15.81868952 172.65576172 27.56298828 C176.81163971 33.33839999 179.24920774 39.31407961 181.48388672 46.03173828 C181.82985901 47.04337036 182.1758313 48.05500244 182.5322876 49.09729004 C183.27663187 51.27707561 184.01646248 53.45840674 184.75219727 55.64111328 C186.3307076 60.32352615 187.93120574 64.99832677 189.53076172 69.67358398 C190.35734094 72.08972607 191.1828526 74.50623362 192.00732422 76.9230957 C195.96204494 88.50377374 200.04778996 100.03598384 204.15576172 111.56298828 C210.46463768 129.29362419 216.65398753 147.06322138 222.79101562 164.85400391 C228.51390784 181.43881252 234.3283212 197.98878105 240.20700073 214.51895142 C246.17831571 231.31599214 252.03126329 248.15199722 257.840271 265.00579834 C264.06440448 283.05922419 270.41882487 301.06342785 276.88256836 319.0324707 C277.2056749 319.93425552 277.52878143 320.83604034 277.86167908 321.76515198 C278.46369884 323.44534656 279.0682605 325.12463333 279.67579651 326.80284119 C281.65576172 332.33736393 281.65576172 332.33736393 281.65576172 334.56298828 C284.95576172 334.56298828 288.25576172 334.56298828 291.65576172 334.56298828 C292.18306885 333.0311792 292.71037598 331.49937012 293.25366211 329.92114258 C303.73318395 299.48323519 314.24334363 269.05680132 324.87011719 238.66992188 C327.616055 230.81763532 330.35771144 222.96385455 333.09841919 215.10974121 C333.71948102 213.33000499 334.34063566 211.55030116 334.96188354 209.77062988 C338.58095793 199.40243886 342.18948383 189.03068617 345.78076172 178.65283203 C347.19725611 174.56032446 348.61388603 170.46786386 350.03076172 166.37548828 C350.38574738 165.35016998 350.74073303 164.32485168 351.10647583 163.26846313 C356.66364033 147.2257682 362.30284694 131.21359827 368.003479 115.22134399 C372.18404975 103.49029083 376.2973191 91.73862212 380.30963707 79.94898796 C380.99281588 77.94227592 381.6772209 75.93598625 382.36201477 73.92982483 C382.81566754 72.60044162 383.26929615 71.27105016 383.72290039 69.94165039 C383.94653543 69.28627446 384.17017046 68.63089853 384.40058231 67.95566273 C385.50772618 64.70812521 386.61042864 61.45919337 387.70401001 58.20706177 C388.92400188 54.58309719 390.15605263 50.96342369 391.39013672 47.34423828 C391.74780624 46.26931625 392.10547577 45.19439423 392.47398376 44.0868988 C396.61361858 32.02650031 402.9147269 22.41634043 414.65576172 16.56298828 C422.89548751 14.3638739 431.27740511 13.66881045 439.74121094 12.8671875 C441.3601832 12.70972368 442.97910906 12.55178217 444.59799194 12.3934021 C448.97359779 11.96682315 453.34985182 11.54728508 457.72628927 11.12933493 C462.32055163 10.68966395 466.91427571 10.24443211 471.50808716 9.80007935 C479.22278319 9.0547671 486.93791705 8.31412444 494.65332031 7.57617188 C503.55223368 6.72495387 512.45036959 5.86594835 521.34813678 5.00283802 C529.93174573 4.17042049 538.51591832 3.34395513 547.10034561 2.52002335 C550.74219235 2.17035198 554.38382432 1.81855537 558.02529526 1.46499252 C562.32094121 1.04815656 566.61705768 0.63654582 570.91357803 0.22882462 C572.48299588 0.07906248 574.05224785 -0.07245079 575.62130737 -0.22592163 C598.25647416 -2.43671487 598.25647416 -2.43671487 603.65576172 -0.18701172 C607.25314833 2.96070156 608.51647586 4.29183583 609.05810547 9.23486328 C608.93145639 16.59222307 605.91306667 23.36899998 603.40576172 30.18798828 C602.82449105 31.80197986 602.24445482 33.41641645 601.66552734 35.03125 C600.03651298 39.56158056 598.38833867 44.08472484 596.7355957 48.60644531 C594.84326649 53.78756826 592.96148494 58.97252707 591.07763672 64.15673828 C588.58398132 71.01622267 586.08808211 77.87487444 583.58642578 84.73144531 C577.35818273 101.81224808 571.23371274 118.92818905 565.15576172 136.06298828 C558.40462932 155.0935306 551.57917631 174.09444184 544.65576172 193.06298828 C537.69459069 212.13695391 530.82532001 231.24153043 524.03076172 250.37548828 C517.5453559 268.63838512 511.03991678 286.89342742 504.46826172 305.12548828 C504.10214783 306.14123932 503.73603394 307.15699036 503.35882568 308.20352173 C501.52568623 313.28858926 499.69173447 318.37336336 497.85742188 323.45800781 C494.49537945 332.77870093 491.14061394 342.10201421 487.78515625 351.42507935 C485.90243322 356.65603563 484.01933091 361.88685536 482.13623047 367.11767578 C481.76396332 368.15177078 481.39169617 369.18586578 481.00814819 370.251297 C478.80878806 376.36062076 476.60905844 382.46981134 474.40901184 388.57888794 C465.99707163 411.93714226 457.59230519 435.29796542 449.19633484 458.66196442 C448.46835889 460.68771787 447.74034916 462.71345918 447.0123291 464.73919678 C442.30411211 477.84001575 437.59628887 490.94097522 432.89335442 504.04369164 C431.64426552 507.5237284 430.39495469 511.00368508 429.14505005 514.48342896 C428.64942864 515.86329952 428.15381298 517.24317216 427.65820312 518.62304688 C427.4140523 519.30279886 427.16990147 519.98255085 426.91835213 520.68290138 C425.46202667 524.73855734 424.00839653 528.79516736 422.55686378 532.85254097 C417.98580752 545.6274168 413.37415267 558.38324494 408.58544922 571.07861328 C407.44521322 574.12367606 406.30614664 577.16917428 405.16720581 580.21472168 C404.12671367 582.97426851 403.06302431 585.72404732 401.99780273 588.47412109 C401.38135067 590.11790113 400.76596349 591.76208108 400.15185547 593.40673828 C399.86466644 594.12444397 399.57747742 594.84214966 399.28158569 595.581604 C397.31053293 600.97483861 397.94052623 604.10571081 399.65576172 609.56298828 C400.96482664 619.19056574 400.54386746 628.67219292 395.57373047 637.19580078 C391.65677845 642.03016519 386.63706302 644.28505241 380.65576172 645.56298828 C376.93019529 645.83518778 373.20272434 645.8401909 369.46826172 645.87548828 C368.46472656 645.90449219 367.46119141 645.93349609 366.42724609 645.96337891 C359.88508142 646.01871276 354.11362221 645.43889806 348.65576172 641.56298828 C348.06247574 640.55804321 347.46918976 639.55309814 346.85792542 638.5177002 C344.96074964 636.23472821 343.9345119 635.62107789 340.99159527 635.00779438 C337.44208995 634.80303132 333.93465903 634.79050035 330.37939453 634.83764648 C329.01395816 634.83438577 327.64852594 634.82844726 326.28311157 634.82003784 C323.34669435 634.80764294 320.41113585 634.81405517 317.47476959 634.8351078 C312.82581022 634.86822625 308.17752072 634.85885643 303.52850342 634.84379578 C296.16920864 634.8249174 288.81025883 634.83393702 281.45097995 634.85511702 C268.28858475 634.89276962 255.12624038 634.89690704 241.96382022 634.87026471 C237.34901241 634.86220274 232.73462423 634.87070353 228.11986589 634.89282763 C225.23937421 634.90396936 222.35897259 634.90291375 219.47846603 634.89895248 C217.5204726 634.90010484 215.56250579 634.91630041 213.60458374 634.93305969 C202.97137087 634.89830383 194.4514415 633.11740122 186.65576172 625.56298828 C182.0337449 619.13241989 179.11414251 612.19111197 176.54638672 604.75048828 C176.18254883 603.725457 175.81871094 602.70042572 175.44384766 601.64433289 C174.25458654 598.28728935 173.08034387 594.92519264 171.90576172 591.56298828 C171.06287843 589.17690598 170.21878163 586.79125205 169.37353516 584.40600586 C167.6366025 579.50227938 165.90433324 574.59694422 164.17529297 569.69042969 C160.82362264 560.19269937 157.40783944 550.71832701 153.98693848 541.24536133 C152.13918213 536.12705329 150.29608905 531.00706647 148.45263672 525.88720703 C148.07322937 524.83371063 147.69382202 523.78021423 147.30291748 522.6947937 C142.49482002 509.34250125 137.69718971 495.9864459 132.89866638 482.6307106 C125.82379834 462.93927065 118.74546743 443.24909244 111.65576172 423.56298828 C104.56546593 403.87524563 97.48670835 384.18337067 90.41107178 364.49035645 C83.83186646 346.17910747 77.2485688 327.86934574 70.65576172 309.56298828 C63.56546593 289.87524563 56.48670835 270.18337067 49.41107178 250.49035645 C42.83186646 232.17910747 36.2485688 213.86934574 29.65576172 195.56298828 C22.31958936 175.19251605 14.9956166 154.81767311 7.67504883 134.44158936 C2.30473332 119.49390775 -3.06699399 104.54674911 -8.45217896 89.60441589 C-10.31075957 84.44715668 -12.16762456 79.2892986 -14.01953125 74.12963867 C-17.21436977 65.23142345 -20.41941151 56.3378391 -23.68426514 47.46502686 C-25.11640459 43.56814289 -26.5378139 39.66739193 -27.95776367 35.76605225 C-28.62195093 33.95003794 -29.29122793 32.13587548 -29.96606445 30.3237915 C-30.88911416 27.84431043 -31.79424983 25.35894562 -32.69580078 22.87158203 C-32.96667511 22.15831253 -33.23754944 21.44504303 -33.51663208 20.7101593 C-35.29197282 15.73487119 -36.17811769 10.84030156 -35.34423828 5.56298828 C-28.88702142 -6.33189004 -11.17802819 -1.09333099 0 0 Z " fill="#5C86BE" transform="translate(88.34423828125,58.43701171875)"/>
<path d="M0 0 C3.59738661 3.14771328 4.86071415 4.47884755 5.40234375 9.421875 C5.27569467 16.77923479 2.25730495 23.5560117 -0.25 30.375 C-0.83127067 31.98899158 -1.41130689 33.60342817 -1.99023438 35.21826172 C-3.61924874 39.74859227 -5.26742305 44.27173656 -6.92016602 48.79345703 C-8.81249523 53.97457998 -10.69427677 59.15953879 -12.578125 64.34375 C-15.0717804 71.20323439 -17.5676796 78.06188616 -20.06933594 84.91845703 C-26.29757898 101.9992598 -32.42204898 119.11520077 -38.5 136.25 C-45.2511324 155.28054232 -52.07658541 174.28145356 -59 193.25 C-65.96117103 212.32396563 -72.83044171 231.42854215 -79.625 250.5625 C-86.11040582 268.82539684 -92.61584494 287.08043914 -99.1875 305.3125 C-99.73667084 306.83612656 -99.73667084 306.83612656 -100.29693604 308.39053345 C-102.13007549 313.47560098 -103.96402725 318.56037508 -105.79833984 323.64501953 C-109.16038227 332.96571265 -112.51514778 342.28902593 -115.87060547 351.61209106 C-117.7533285 356.84304734 -119.6364308 362.07386708 -121.51953125 367.3046875 C-122.07793198 368.85583 -122.07793198 368.85583 -122.64761353 370.43830872 C-124.84697366 376.54763248 -127.04670328 382.65682306 -129.24674988 388.76589966 C-137.65869009 412.12415398 -146.06345652 435.48497714 -154.45942688 458.84897614 C-155.18740282 460.87472959 -155.91541255 462.9004709 -156.64343262 464.9262085 C-161.35164961 478.02702747 -166.05947285 491.12798694 -170.7624073 504.23070335 C-172.0114962 507.71074012 -173.26080703 511.1906968 -174.51071167 514.67044067 C-175.00633308 516.05031124 -175.50194874 517.43018388 -175.99755859 518.81005859 C-176.24170942 519.48981058 -176.48586025 520.16956257 -176.73740959 520.8699131 C-178.19373504 524.92556905 -179.64736519 528.98217908 -181.09889793 533.03955269 C-185.6699542 545.81442852 -190.28160904 558.57025666 -195.0703125 571.265625 C-196.2105485 574.31068778 -197.34961508 577.356186 -198.48855591 580.4017334 C-199.52904805 583.16128022 -200.59273741 585.91105904 -201.65795898 588.66113281 C-202.27441105 590.30491285 -202.88979823 591.9490928 -203.50390625 593.59375 C-203.79109528 594.31145569 -204.0782843 595.02916138 -204.37417603 595.76861572 C-206.34522879 601.16185033 -205.71523549 604.29272253 -204 609.75 C-202.69093508 619.37757745 -203.11189426 628.85920464 -208.08203125 637.3828125 C-211.99898327 642.21717691 -217.0186987 644.47206413 -223 645.75 C-226.72556643 646.0221995 -230.45303738 646.02720262 -234.1875 646.0625 C-235.19103516 646.09150391 -236.19457031 646.12050781 -237.22851562 646.15039062 C-244.46218486 646.21157325 -251.17803961 645.33435472 -256.65722656 640.19580078 C-260 636.31061067 -260 636.31061067 -260 634.75 C-258.44104004 634.71241577 -258.44104004 634.71241577 -256.85058594 634.67407227 C-252.98897297 634.57979074 -249.12753117 634.47962092 -245.26611328 634.37768555 C-243.59590666 634.33441511 -241.92565806 634.29273451 -240.25537109 634.25268555 C-237.85241045 634.19479149 -235.44965959 634.1311526 -233.046875 634.06640625 C-232.30193787 634.04969376 -231.55700073 634.03298126 -230.78948975 634.01576233 C-227.3763353 633.91856963 -224.28771065 633.65448022 -221 632.75 C-222.10278251 624.80254853 -223.83015078 617.51105359 -226.578125 609.98046875 C-226.93677643 608.97138962 -227.29542786 607.96231049 -227.66494751 606.9226532 C-228.4426188 604.73826523 -229.22484017 602.5554928 -230.01116943 600.37420654 C-231.28349837 596.84457036 -232.54390329 593.31087122 -233.80126953 589.77587891 C-235.14312629 586.00356834 -236.48526594 582.23137407 -237.83169556 578.46069336 C-242.45129598 565.51931965 -246.98026189 552.54675758 -251.50039673 539.57037354 C-253.58371068 533.58987098 -255.67102836 527.61076544 -257.75804329 521.63155365 C-258.45656876 519.63023132 -259.15498217 517.62886991 -259.8533783 515.62750244 C-266.90156241 495.43120785 -273.97365833 475.24327567 -281.0428772 455.05433655 C-283.99533485 446.62170881 -286.94533236 438.18822392 -289.89410973 429.7543087 C-291.28747548 425.76932594 -292.68122521 421.78447747 -294.07496738 417.79962635 C-295.20719508 414.5623433 -296.33914813 411.32496474 -297.4704895 408.08737183 C-303.47622725 390.89053569 -303.47622725 390.89053569 -309.5859375 373.73046875 C-309.84413773 373.0122998 -310.10233795 372.29413086 -310.36836243 371.55419922 C-310.73721809 370.52842773 -310.73721809 370.52842773 -311.11352539 369.48193359 C-315.23600648 358.01668812 -319.06257554 346.58084217 -322 334.75 C-318.7 334.75 -315.4 334.75 -312 334.75 C-311.47269287 333.21819092 -310.94538574 331.68638184 -310.40209961 330.1081543 C-299.92257777 299.67024691 -289.41241809 269.24381304 -278.78564453 238.85693359 C-276.03970672 231.00464704 -273.29805028 223.15086627 -270.55734253 215.29675293 C-269.9362807 213.51701671 -269.31512606 211.73731288 -268.69387817 209.9576416 C-265.07480379 199.58945058 -261.46627788 189.21769789 -257.875 178.83984375 C-256.45850561 174.74733618 -255.04187569 170.65487558 -253.625 166.5625 C-253.27001434 165.5371817 -252.91502869 164.5118634 -252.54928589 163.45547485 C-246.99212139 147.41277992 -241.35291478 131.40060998 -235.65228271 115.40835571 C-231.47171197 103.67730255 -227.35844262 91.92563384 -223.34612465 80.13599968 C-222.66294583 78.12928764 -221.97854082 76.12299797 -221.29374695 74.11683655 C-220.84009418 72.78745334 -220.38646557 71.45806188 -219.93286133 70.12866211 C-219.70922629 69.47328618 -219.48559126 68.81791025 -219.25517941 68.14267445 C-218.14803554 64.89513693 -217.04533308 61.64620509 -215.95175171 58.39407349 C-214.73175984 54.77010891 -213.49970909 51.15043541 -212.265625 47.53125 C-211.90795547 46.45632797 -211.55028595 45.38140594 -211.18177795 44.27391052 C-207.04214313 32.21351202 -200.74103482 22.60335215 -189 16.75 C-180.76027421 14.55088562 -172.3783566 13.85582217 -163.91455078 13.05419922 C-162.29557852 12.8967354 -160.67665266 12.73879389 -159.05776978 12.58041382 C-154.68216393 12.15383487 -150.3059099 11.7342968 -145.92947245 11.31634665 C-141.33521009 10.87667567 -136.74148601 10.43144383 -132.14767456 9.98709106 C-124.43297853 9.24177882 -116.71784467 8.50113616 -109.00244141 7.76318359 C-100.10352804 6.91196559 -91.20539213 6.05296007 -82.30762494 5.18984973 C-73.72401599 4.3574322 -65.1398434 3.53096685 -56.55541611 2.70703506 C-52.91356937 2.3573637 -49.2719374 2.00556709 -45.63046646 1.65200424 C-41.33482051 1.23516827 -37.03870404 0.82355753 -32.74218369 0.41583633 C-31.17276584 0.26607419 -29.60351387 0.11456093 -28.03445435 -0.03890991 C-5.39928756 -2.24970315 -5.39928756 -2.24970315 0 0 Z " fill="#526A89" transform="translate(692,58.25)"/>
<path d="M0 0 C4.274104 8.548208 4.55254386 18.41202725 1.9765625 27.68359375 C-0.78205608 33.78760891 -3.75745979 37.37586274 -9.8515625 40.23046875 C-15.61693586 42.29552066 -21.1104283 42.25506076 -27.1875 42.3125 C-28.69280273 42.35600586 -28.69280273 42.35600586 -30.22851562 42.40039062 C-37.46218486 42.46157325 -44.17803961 41.58435472 -49.65722656 36.44580078 C-53 32.56061067 -53 32.56061067 -53 31 C-51.46460571 30.98598145 -51.46460571 30.98598145 -49.89819336 30.97167969 C-46.07533353 30.93159832 -42.25326322 30.86579108 -38.4309082 30.79248047 C-36.78127234 30.76437544 -35.13150442 30.74310909 -33.48168945 30.72900391 C-31.10039175 30.70742767 -28.72066412 30.66070755 -26.33984375 30.609375 C-25.61039047 30.60814636 -24.88093719 30.60691772 -24.12937927 30.60565186 C-18.71724808 30.45323802 -15.49023701 29.04073439 -11 26 C-9.57302536 24.2773572 -9.57302536 24.2773572 -8.9375 22.25 C-8.64101563 21.48171875 -8.34453125 20.7134375 -8.0390625 19.921875 C-7.69617188 18.95765625 -7.35328125 17.9934375 -7 17 C-6.21705868 14.89891583 -5.42702865 12.80056309 -4.63696289 10.70214844 C-4.09108224 9.24409588 -3.55111339 7.78381513 -3.01733398 6.32128906 C-1.10537207 1.10537207 -1.10537207 1.10537207 0 0 Z " fill="#000000" transform="translate(485,662)"/>
<path d="M0 0 C2.97 0 5.94 0 9 0 C10.28497537 3.85492611 9.4052209 5.40346836 8.0625 9.1875 C7.68222656 10.27417969 7.30195313 11.36085938 6.91015625 12.48046875 C6.60980469 13.31191406 6.30945313 14.14335937 6 15 C3.36404228 12.36404228 2.92297888 9.93812819 1.875 6.375 C1.52179688 5.18648438 1.16859375 3.99796875 0.8046875 2.7734375 C0.53914063 1.85820312 0.27359375 0.94296875 0 0 Z " fill="#000001" transform="translate(370,393)"/>
</svg>
